<?xml version="1.0" encoding="UTF-8"?>
<svg version="1.1" xmlns="http://www.w3.org/2000/svg" width="500" height="500">
<path d="M0 0 C31.22388037 6.74151963 51.00459631 22.55983002 73 45 C69.07022596 39.5626104 64.90637862 34.51165188 60.3125 29.625 C59.74466797 29.01011719 59.17683594 28.39523438 58.59179688 27.76171875 C56.13021601 25.12410455 54.02715053 23.01810035 51 21 C50.70703125 18.8359375 50.70703125 18.8359375 50.8125 16.375 C50.83957031 15.55773437 50.86664063 14.74046875 50.89453125 13.8984375 C50.94673828 12.95871094 50.94673828 12.95871094 51 12 C55.74961963 13.50922493 58.88129895 16.15553763 62.5625 19.375 C63.40844727 20.09816406 63.40844727 20.09816406 64.27148438 20.8359375 C67.30409483 23.44646533 70.21290947 26.12432224 73 29 C73.66 28.67 74.32 28.34 75 28 C91.01995977 40.2100553 101.29345779 58.65088204 106 78 C106.31904297 79.30130859 106.31904297 79.30130859 106.64453125 80.62890625 C108.85130044 91.53574392 108.65914446 102.9132252 109 114 C110.32 110.7 111.64 107.4 113 104 C115.22337519 107.33506279 115.75550146 109.77926101 116.5625 113.6875 C116.81128906 114.86699219 117.06007813 116.04648438 117.31640625 117.26171875 C118.75184929 125.11154152 119.2094974 132.65611428 119.25 140.625 C119.2809375 142.11193359 119.2809375 142.11193359 119.3125 143.62890625 C119.38082776 156.90157278 115.89708893 167.95708512 110.15960693 179.73590088 C104.27020655 191.96718526 101.83437509 201.39238893 103.80371094 215.00488281 C104.93823907 226.53642997 96.84506541 237.54048531 90.125 246.125 C88.75995181 247.75836874 87.38489341 249.38342329 86 251 C85.33484375 251.81082031 84.6696875 252.62164062 83.984375 253.45703125 C76.48654506 262.27392386 67.4961734 269.9676526 57.0625 275.0625 C52.01874633 277.62862029 49.66208818 280.68577928 46.6640625 285.41015625 C35.13084429 303.35974233 15.40051398 307.859007 -4.23852539 312.30786133 C-19.28860588 315.489296 -34.69969049 316.64468371 -50 318 C-49.01 318.66 -48.02 319.32 -47 320 C-47 320.66 -47 321.32 -47 322 C-61.65789055 322.87172477 -76.11672913 319.39711312 -90 315 C-87.525 316.485 -87.525 316.485 -85 318 C-89.22979358 319.40993119 -92.58471242 318.07156049 -96.75 316.9375 C-97.6054541 316.70562988 -98.4609082 316.47375977 -99.34228516 316.23486328 C-119.17190006 310.69972744 -138.38903792 301.17508016 -155 289 C-156.051875 288.23171875 -157.10375 287.4634375 -158.1875 286.671875 C-165.37321228 281.32669121 -172.08494979 275.55781317 -178.55908203 269.37353516 C-179.96498055 268.03338181 -181.38662191 266.7098052 -182.80859375 265.38671875 C-209.89110156 239.45665808 -221.9664309 204.98570235 -229 169 C-229.99 172.96 -230.98 176.92 -232 181 C-232.33 181 -232.66 181 -233 181 C-233.21680919 163.20997214 -233.23085568 145.68749858 -231 128 C-232.485 131.465 -232.485 131.465 -234 135 C-235.20216418 131.49817733 -234.78678578 129.20550011 -233.84765625 125.66015625 C-233.56986328 124.60715332 -233.29207031 123.55415039 -233.00585938 122.46923828 C-232.69455078 121.34501465 -232.38324219 120.22079102 -232.0625 119.0625 C-231.74474609 117.90476074 -231.42699219 116.74702148 -231.09960938 115.55419922 C-223.55122784 88.74861624 -212.63117514 62.78887029 -187.6171875 48 C-172.76726488 39.93649819 -156.58225376 37.68354925 -140 41 C-140.33 44.63 -140.66 48.26 -141 52 C-140.05125 50.68 -139.1025 49.36 -138.125 48 C-136.5078125 45.75 -136.5078125 45.75 -135 44 C-134.34 44 -133.68 44 -133 44 C-132.75121094 43.41992188 -132.50242187 42.83984375 -132.24609375 42.2421875 C-127.89239641 34.40826188 -118.83436257 29.67665261 -111 26 C-110.28328125 25.65839844 -109.5665625 25.31679687 -108.828125 24.96484375 C-101.82915258 22.13631166 -94.41265954 22.73630855 -87 23 C-87.78375 23.886875 -88.5675 24.77375 -89.375 25.6875 C-103.87086838 42.72529791 -114.81230338 60.5523631 -113.88671875 83.8515625 C-112.73465852 94.15070336 -107.57707316 103.74259353 -101.8046875 112.2265625 C-98.70400643 116.99167843 -98.84033742 120.84343576 -98.8125 126.5 C-98.79832031 127.8096875 -98.78414062 129.119375 -98.76953125 130.46875 C-98.97853342 133.67108832 -99.29068836 135.35158038 -101 138 C-101.495 137.29875 -101.99 136.5975 -102.5 135.875 C-108.46841291 129.01132515 -116.12142425 123.89941489 -125.19140625 122.51171875 C-135.91229228 121.90080793 -144.21351491 125.3070239 -152.48046875 132.01171875 C-160.57188399 140.22458113 -163.40076648 150.78274534 -164.0546875 162.02734375 C-163.99796078 165.11084629 -163.58593316 167.97568347 -163 171 C-163.02320313 170.40574219 -163.04640625 169.81148437 -163.0703125 169.19921875 C-163.33553162 157.01808328 -161.32740829 145.58121507 -152.9375 136.25 C-145.08874957 129.12861221 -136.78601388 126.07858256 -126.2265625 126.5234375 C-121.75763679 127.18349674 -118.78850893 128.57535428 -115 131 C-115 131.66 -115 132.32 -115 133 C-115.7425 133.66 -116.485 134.32 -117.25 135 C-125.00829365 142.53851196 -125.99993995 155.65564529 -126.3125 165.875 C-125.9667134 181.45573755 -120.90702459 194.65569729 -110.171875 205.94921875 C-107.64020266 208.3397367 -104.96407196 210.18113766 -102 212 C-101.175 212.845625 -100.35 213.69125 -99.5 214.5625 C-93.56999567 220.34425422 -86.34710951 221.06453867 -78.51953125 222.37304688 C-72.70591248 223.42726151 -68.17177562 225.12612468 -63 228 C-63 228.66 -63 229.32 -63 230 C-66.3 230 -69.6 230 -73 230 C-58.95000427 235.96985985 -47.03306991 235.83845251 -32.1875 232.5625 C-30.03550366 232.10383571 -27.88316811 231.64675958 -25.73046875 231.19140625 C-24.73966309 230.98016113 -23.74885742 230.76891602 -22.72802734 230.55126953 C-19.49325711 229.8975993 -16.27409741 229.40634305 -13 229 C-13 229.99 -13 230.98 -13 232 C-11.824375 231.01 -11.824375 231.01 -10.625 230 C-8 228 -8 228 -6 228 C-5.6596875 227.195625 -5.6596875 227.195625 -5.3125 226.375 C-3.53490786 223.15840469 -1.57020962 220.62998193 1 218 C3.8125 217.625 3.8125 217.625 6 218 C6.33 219.32 6.66 220.64 7 222 C21.80086779 213.33607739 26.82789005 197.62351372 31.13500977 181.99169922 C32.69001128 176.01325729 33.56947217 170.16037124 34 164 C37.16115776 165.36983503 37.9927092 165.9890638 40 169 C43.96694672 154.03038972 44.28901704 141.23475894 42.5 125.875 C40.78445262 111.05328887 40.78445262 111.05328887 41 105 C47.49808377 108.05012096 50.90514988 112.17510683 55 118 C55.59629253 107.13422492 53.97775952 96.64686334 52 86 C51.79117187 84.85402344 51.58234375 83.70804687 51.3671875 82.52734375 C47.44168807 66.51543819 34.00418524 48.07824356 21 38 C21 37.67 21 37.34 21 37 C31.67302875 36.20940528 39.55277703 40.87882393 48 47 C43.63173473 39.70112638 38.23436294 33.5675191 32.38183594 27.45361328 C31.12429417 26.13075044 29.89264685 24.78339294 28.6640625 23.43359375 C22.99273934 17.40418363 16.71279281 12.73360268 9.88818359 8.109375 C6.2547655 5.64434691 2.96834952 3.27917146 0 0 Z M-162 175 C-161 178 -161 178 -161 178 Z M-161 178 C-160 181 -160 181 -160 181 Z M-160 181 C-159 183 -159 183 -159 183 Z " fill="#000000" transform="translate(308,105)"/>
<path d="M0 0 C0.41507813 0.35191406 0.83015625 0.70382812 1.2578125 1.06640625 C12.45895733 10.04138213 26.66138908 16.94750425 41.2890625 15.82421875 C47.14646641 14.76988605 52.17057966 12.10236811 57.3984375 9.33984375 C64.91866395 5.46681421 75.18333706 5.96825846 83.35546875 7.71875 C89.5251783 9.82921616 94.45724006 12.53260008 98.375 17.875 C99.29353376 20.99801477 99.23923386 23.77034285 99 27 C97 29 97 29 94.57421875 29.08984375 C92.65739097 28.98868504 90.74071824 28.88454222 88.82421875 28.77734375 C85.34945626 29.05128768 83.85407399 30.00640802 81 32 C80.43998291 32.39002197 79.87996582 32.78004395 79.30297852 33.18188477 C78.0262359 34.07412059 76.75259872 34.97081244 75.48168945 35.87133789 C64.15251509 43.85845317 54.11834645 49.95025226 40 51 C39.28972656 51.07041504 38.57945312 51.14083008 37.84765625 51.21337891 C29.55193689 51.98445539 22.6846107 52.48467918 15.8125 47.125 C13.265625 44.62109375 13.265625 44.62109375 11 42 C10.31421875 41.20722656 9.6284375 40.41445313 8.921875 39.59765625 C1.02852866 29.3661548 -1.07388737 17.66429607 -1 5 C-0.51171875 2.05859375 -0.51171875 2.05859375 0 0 Z " fill="#000000" transform="translate(188,263)"/>
<path d="M0 0 C-0.33 0.66 -0.66 1.32 -1 2 C-1.74121094 1.62488281 -2.48242188 1.24976563 -3.24609375 0.86328125 C-15.0328526 -4.86418909 -27.24016674 -8.14423714 -39.9453125 -11.19140625 C-42.82413017 -11.95344622 -45.63575406 -12.84681721 -48.4609375 -13.78613281 C-89.48641494 -27.30589242 -134.00313169 -23.64706471 -172.59106445 -4.37792969 C-185.41507729 2.29206463 -196.60608121 10.47122206 -207.3840332 20.06591797 C-210.11150172 22.48076766 -212.60709755 24.60973753 -216 26 C-217.65 24.35 -219.3 22.7 -221 21 C-197.43279265 -9.30069517 -155.41256543 -25.58921727 -118.5 -30.3125 C-76.12095942 -34.96578491 -35.11270966 -23.70107902 0 0 Z " fill="#000000" transform="translate(346,113)"/>
<path d="M0 0 C4.70761593 1.83073953 4.70761593 1.83073953 6.81176758 3.04882812 C9.56372841 4.24503915 11.76464162 4.28834145 14.76171875 4.34375 C15.88126953 4.37339844 17.00082031 4.40304688 18.15429688 4.43359375 C19.32025391 4.45550781 20.48621094 4.47742188 21.6875 4.5 C41.88603152 4.88603152 41.88603152 4.88603152 45 8 C45.63372984 14.36167261 45.21931615 19.44945492 42 25 C36.87733132 29.77042231 30.43535982 32.67278688 24.3046875 35.93359375 C20.62858942 37.91429734 17.30322518 39.75161342 14.0625 42.40625 C13.381875 42.9321875 12.70125 43.458125 12 44 C7.90948043 42.63649348 6.91977913 39.95707768 4.9375 36.375 C4.4105957 35.46814453 4.4105957 35.46814453 3.87304688 34.54296875 C-0.14635418 27.41594003 -1.31426415 20.90539039 -1.1875 12.8125 C-1.18685547 12.01908203 -1.18621094 11.22566406 -1.18554688 10.40820312 C-1.15789262 6.74862306 -0.99358061 3.54170606 0 0 Z " fill="#000000" transform="translate(201,171)"/>
<path d="M0 0 C0.66 0 1.32 0 2 0 C2.27972656 1.05058594 2.55945313 2.10117188 2.84765625 3.18359375 C5.01680304 10.91463177 7.04862726 17.2168506 12.546875 23.30078125 C14 25 14 25 15 28 C14.17757812 28.4125 13.35515625 28.825 12.5078125 29.25 C2.50648823 34.42389523 -5.91626388 40.44828418 -13.625 48.75 C-15 50 -15 50 -17 50 C-15.64765605 32.56081832 -12.73359631 13.18836761 0 0 Z " fill="#000000" transform="translate(112,116)"/>
</svg>
